<?xml version="1.0" encoding="UTF-8" standalone="no"?>
<!DOCTYPE svg PUBLIC "-//W3C//DTD SVG 1.1//EN"
 "http://www.w3.org/Graphics/SVG/1.1/DTD/svg11.dtd">
<!-- Generated by graphviz version 2.43.0 (0)
 -->
<!-- Title: schema Pages: 1 -->
<svg width="2660pt" height="1540pt"
 viewBox="0.00 0.00 2660.20 1540.04" xmlns="http://www.w3.org/2000/svg" xmlns:xlink="http://www.w3.org/1999/xlink">
<g id="graph0" class="graph" transform="scale(1 1) rotate(0) translate(21.6 1518.44)">
<title>schema</title>
<polygon fill="white" stroke="transparent" points="-21.6,21.6 -21.6,-1518.44 2638.6,-1518.44 2638.6,21.6 -21.6,21.6"/>
<text text-anchor="start" x="952.5" y="-1474.64" font-family="Helvetica,sans-Serif" font-weight="bold" font-size="24.00" fill="#1f2937">Projet Outils libres &#45; Schéma d’exécution des scripts</text>
<text text-anchor="start" x="1112.5" y="-1445.44" font-family="Helvetica,sans-Serif" font-size="13.00" fill="#6b7280">Ordre d’exécution, fichiers manipulés et livrables du projet</text>
<text text-anchor="start" x="1306" y="-1431.64" font-family="Helvetica,sans-Serif" font-size="14.00"> </text>
<g id="clust1" class="cluster">
<title>cluster_p0</title>
<path fill="#fcfdfe" stroke="#d9dee6" d="M20,-1059.85C20,-1059.85 309,-1059.85 309,-1059.85 315,-1059.85 321,-1065.85 321,-1071.85 321,-1071.85 321,-1403.85 321,-1403.85 321,-1409.85 315,-1415.85 309,-1415.85 309,-1415.85 20,-1415.85 20,-1415.85 14,-1415.85 8,-1409.85 8,-1403.85 8,-1403.85 8,-1071.85 8,-1071.85 8,-1065.85 14,-1059.85 20,-1059.85"/>
<text text-anchor="middle" x="164.5" y="-1400.64" font-family="Helvetica,sans-Serif" font-size="14.00" fill="#374151">Phase 0 &#160;&#45; &#160;Préparation de l&#39;environnement</text>
</g>
<g id="clust2" class="cluster">
<title>cluster_p1</title>
<path fill="#fbfdff" stroke="#9dbbe6" d="M341,-364.85C341,-364.85 914,-364.85 914,-364.85 920,-364.85 926,-370.85 926,-376.85 926,-376.85 926,-1146.85 926,-1146.85 926,-1152.85 920,-1158.85 914,-1158.85 914,-1158.85 341,-1158.85 341,-1158.85 335,-1158.85 329,-1152.85 329,-1146.85 329,-1146.85 329,-376.85 329,-376.85 329,-370.85 335,-364.85 341,-364.85"/>
<text text-anchor="middle" x="568.5" y="-1143.64" font-family="Helvetica,sans-Serif" font-size="14.00" fill="#374151">Phase 1 &#160;&#45; &#160;Pipeline ML hors ligne &#160;&#160;(make all : split → train → plots)</text>
</g>
<g id="clust3" class="cluster">
<title>cluster_p2</title>
<path fill="#fdfcff" stroke="#b7a7e0" d="M946,-285.12C946,-285.12 1313,-285.12 1313,-285.12 1319,-285.12 1325,-291.12 1325,-297.12 1325,-297.12 1325,-627.85 1325,-627.85 1325,-633.85 1319,-639.85 1313,-639.85 1313,-639.85 946,-639.85 946,-639.85 940,-639.85 934,-633.85 934,-627.85 934,-627.85 934,-297.12 934,-297.12 934,-291.12 940,-285.12 946,-285.12"/>
<text text-anchor="middle" x="1042.5" y="-624.64" font-family="Helvetica,sans-Serif" font-size="14.00" fill="#374151">Phase 2 &#160;&#45; &#160;Tests &amp; validation</text>
</g>
<g id="clust4" class="cluster">
<title>cluster_p3</title>
<path fill="#fffdfa" stroke="#e6b98a" d="M1345,-278C1345,-278 1808,-278 1808,-278 1814,-278 1820,-284 1820,-290 1820,-290 1820,-779.85 1820,-779.85 1820,-785.85 1814,-791.85 1808,-791.85 1808,-791.85 1345,-791.85 1345,-791.85 1339,-791.85 1333,-785.85 1333,-779.85 1333,-779.85 1333,-290 1333,-290 1333,-284 1339,-278 1345,-278"/>
<text text-anchor="middle" x="1562.5" y="-776.64" font-family="Helvetica,sans-Serif" font-size="14.00" fill="#374151">Phase 3 &#160;&#45; &#160;Déploiement de l&#39;application web &#160;&#160;(make docker&#45;up)</text>
</g>
<g id="clust5" class="cluster">
<title>cluster_p4</title>
<path fill="#fffcfe" stroke="#e2a0c4" d="M1202,-93C1202,-93 1827,-93 1827,-93 1833,-93 1839,-99 1839,-105 1839,-105 1839,-258 1839,-258 1839,-264 1833,-270 1827,-270 1827,-270 1202,-270 1202,-270 1196,-270 1190,-264 1190,-258 1190,-258 1190,-105 1190,-105 1190,-99 1196,-93 1202,-93"/>
<text text-anchor="middle" x="1268.5" y="-254.8" font-family="Helvetica,sans-Serif" font-size="14.00" fill="#374151">Phase 4 &#160;&#45; &#160;Livrables</text>
</g>
<g id="clust6" class="cluster">
<title>cluster_legend</title>
<path fill="#fcfdfe" stroke="#d9dee6" d="M1859,-8C1859,-8 2597,-8 2597,-8 2603,-8 2609,-14 2609,-20 2609,-20 2609,-344.85 2609,-344.85 2609,-350.85 2603,-356.85 2597,-356.85 2597,-356.85 1859,-356.85 1859,-356.85 1853,-356.85 1847,-350.85 1847,-344.85 1847,-344.85 1847,-20 1847,-20 1847,-14 1853,-8 1859,-8"/>
<text text-anchor="middle" x="1883.5" y="-342.45" font-family="Helvetica,sans-Serif" font-size="13.00" fill="#374151">Légende</text>
</g>
<!-- p0_clone -->
<g id="node1" class="node">
<title>p0_clone</title>
<path fill="#fef3c7" stroke="#e5c766" stroke-width="1.3" d="M223.5,-1376.85C223.5,-1376.85 122.5,-1376.85 122.5,-1376.85 116.5,-1376.85 110.5,-1370.85 110.5,-1364.85 110.5,-1364.85 110.5,-1352.85 110.5,-1352.85 110.5,-1346.85 116.5,-1340.85 122.5,-1340.85 122.5,-1340.85 223.5,-1340.85 223.5,-1340.85 229.5,-1340.85 235.5,-1346.85 235.5,-1352.85 235.5,-1352.85 235.5,-1364.85 235.5,-1364.85 235.5,-1370.85 229.5,-1376.85 223.5,-1376.85"/>
<text text-anchor="middle" x="173" y="-1356.05" font-family="Helvetica,sans-Serif" font-size="11.00" fill="#1f2937">git clone &lt;dépôt&gt;</text>
</g>
<!-- p0_venv -->
<g id="node2" class="node">
<title>p0_venv</title>
<path fill="#fef3c7" stroke="#e5c766" stroke-width="1.3" d="M243.5,-1301.85C243.5,-1301.85 102.5,-1301.85 102.5,-1301.85 96.5,-1301.85 90.5,-1295.85 90.5,-1289.85 90.5,-1289.85 90.5,-1275.85 90.5,-1275.85 90.5,-1269.85 96.5,-1263.85 102.5,-1263.85 102.5,-1263.85 243.5,-1263.85 243.5,-1263.85 249.5,-1263.85 255.5,-1269.85 255.5,-1275.85 255.5,-1275.85 255.5,-1289.85 255.5,-1289.85 255.5,-1295.85 249.5,-1301.85 243.5,-1301.85"/>
<text text-anchor="middle" x="173" y="-1286.05" font-family="Helvetica,sans-Serif" font-size="11.00" fill="#1f2937">python3 &#45;m venv .venv</text>
<text text-anchor="middle" x="173" y="-1274.05" font-family="Helvetica,sans-Serif" font-size="11.00" fill="#1f2937">source .venv/bin/activate</text>
</g>
<!-- p0_clone&#45;&gt;p0_venv -->
<g id="edge1" class="edge">
<title>p0_clone&#45;&gt;p0_venv</title>
<path fill="none" stroke="#374151" stroke-width="1.7" d="M173,-1340.68C173,-1331.88 173,-1320.95 173,-1311.04"/>
<polygon fill="#374151" stroke="#374151" stroke-width="1.7" points="176.15,-1310.95 173,-1301.95 169.85,-1310.95 176.15,-1310.95"/>
</g>
<!-- p0_pip -->
<g id="node3" class="node">
<title>p0_pip</title>
<path fill="#fef3c7" stroke="#e5c766" stroke-width="1.3" d="M293,-1224.85C293,-1224.85 53,-1224.85 53,-1224.85 47,-1224.85 41,-1218.85 41,-1212.85 41,-1212.85 41,-1198.85 41,-1198.85 41,-1192.85 47,-1186.85 53,-1186.85 53,-1186.85 293,-1186.85 293,-1186.85 299,-1186.85 305,-1192.85 305,-1198.85 305,-1198.85 305,-1212.85 305,-1212.85 305,-1218.85 299,-1224.85 293,-1224.85"/>
<text text-anchor="middle" x="173" y="-1209.05" font-family="Helvetica,sans-Serif" font-size="11.00" fill="#1f2937">pip install &#45;r back&#45;end/requirements.txt</text>
<text text-anchor="middle" x="173" y="-1197.05" font-family="Helvetica,sans-Serif" font-size="11.00" fill="#1f2937">pip install &#45;r back&#45;end/app/requirements.txt</text>
</g>
<!-- p0_venv&#45;&gt;p0_pip -->
<g id="edge2" class="edge">
<title>p0_venv&#45;&gt;p0_pip</title>
<path fill="none" stroke="#374151" stroke-width="1.7" d="M173,-1263.69C173,-1254.82 173,-1243.96 173,-1234.12"/>
<polygon fill="#374151" stroke="#374151" stroke-width="1.7" points="176.15,-1234.09 173,-1225.09 169.85,-1234.09 176.15,-1234.09"/>
</g>
<!-- p0_npm -->
<g id="node4" class="node">
<title>p0_npm</title>
<path fill="#fef3c7" stroke="#e5c766" stroke-width="1.3" d="M205,-1113.85C205,-1113.85 141,-1113.85 141,-1113.85 135,-1113.85 129,-1107.85 129,-1101.85 129,-1101.85 129,-1087.85 129,-1087.85 129,-1081.85 135,-1075.85 141,-1075.85 141,-1075.85 205,-1075.85 205,-1075.85 211,-1075.85 217,-1081.85 217,-1087.85 217,-1087.85 217,-1101.85 217,-1101.85 217,-1107.85 211,-1113.85 205,-1113.85"/>
<text text-anchor="middle" x="173" y="-1098.05" font-family="Helvetica,sans-Serif" font-size="11.00" fill="#1f2937">npm install</text>
<text text-anchor="middle" x="173" y="-1086.05" font-family="Helvetica,sans-Serif" font-size="11.00" fill="#1f2937">(front&#45;end/)</text>
</g>
<!-- p0_pip&#45;&gt;p0_npm -->
<g id="edge3" class="edge">
<title>p0_pip&#45;&gt;p0_npm</title>
<path fill="none" stroke="#374151" stroke-width="1.7" d="M173,-1186.35C173,-1169.03 173,-1142.9 173,-1123.17"/>
<polygon fill="#374151" stroke="#374151" stroke-width="1.7" points="176.15,-1123.06 173,-1114.06 169.85,-1123.06 176.15,-1123.06"/>
</g>
<!-- c_split -->
<g id="node6" class="node">
<title>c_split</title>
<path fill="#fef3c7" stroke="#e5c766" stroke-width="1.3" d="M442,-1112.85C442,-1112.85 384,-1112.85 384,-1112.85 378,-1112.85 372,-1106.85 372,-1100.85 372,-1100.85 372,-1088.85 372,-1088.85 372,-1082.85 378,-1076.85 384,-1076.85 384,-1076.85 442,-1076.85 442,-1076.85 448,-1076.85 454,-1082.85 454,-1088.85 454,-1088.85 454,-1100.85 454,-1100.85 454,-1106.85 448,-1112.85 442,-1112.85"/>
<text text-anchor="middle" x="413" y="-1092.05" font-family="Helvetica,sans-Serif" font-size="11.00" fill="#1f2937">make split</text>
</g>
<!-- p0_pip&#45;&gt;c_split -->
<g id="edge27" class="edge">
<title>p0_pip&#45;&gt;c_split</title>
<path fill="none" stroke="#374151" stroke-width="1.7" d="M251.19,-1186.79C275.79,-1179.68 302.63,-1170.41 326,-1158.85 347.74,-1148.09 369.85,-1132 386.34,-1118.77"/>
<polygon fill="#374151" stroke="#374151" stroke-width="1.7" points="388.52,-1121.06 393.5,-1112.92 384.54,-1116.18 388.52,-1121.06"/>
</g>
<!-- d_raw -->
<g id="node5" class="node">
<title>d_raw</title>
<polygon fill="#f3f4f6" stroke="#c2c7cf" stroke-width="1.3" points="659,-1119.85 656,-1123.85 635,-1123.85 632,-1119.85 477,-1119.85 477,-1069.85 659,-1069.85 659,-1119.85"/>
<text text-anchor="middle" x="568" y="-1104.05" font-family="Helvetica,sans-Serif" font-size="11.00" fill="#1f2937">data/raw/</text>
<text text-anchor="middle" x="568" y="-1092.05" font-family="Helvetica,sans-Serif" font-size="11.00" fill="#1f2937">credit_risk_dataset.csv</text>
<text text-anchor="middle" x="568" y="-1080.05" font-family="Helvetica,sans-Serif" font-size="11.00" fill="#1f2937">(32 581 lignes, 11 variables)</text>
</g>
<!-- s_split -->
<g id="node7" class="node">
<title>s_split</title>
<path fill="#ddebff" stroke="#7fa8e0" stroke-width="1.3" d="M604.5,-1021.85C604.5,-1021.85 499.5,-1021.85 499.5,-1021.85 493.5,-1021.85 487.5,-1015.85 487.5,-1009.85 487.5,-1009.85 487.5,-995.85 487.5,-995.85 487.5,-989.85 493.5,-983.85 499.5,-983.85 499.5,-983.85 604.5,-983.85 604.5,-983.85 610.5,-983.85 616.5,-989.85 616.5,-995.85 616.5,-995.85 616.5,-1009.85 616.5,-1009.85 616.5,-1015.85 610.5,-1021.85 604.5,-1021.85"/>
<text text-anchor="middle" x="552" y="-1006.05" font-family="Helvetica,sans-Serif" font-size="11.00" fill="#1f2937">split_dataset.py</text>
<text text-anchor="middle" x="552" y="-994.05" font-family="Helvetica,sans-Serif" font-size="11.00" fill="#1f2937">split stratifié 80/20</text>
</g>
<!-- d_raw&#45;&gt;s_split -->
<g id="edge9" class="edge">
<title>d_raw&#45;&gt;s_split</title>
<path fill="none" stroke="#5a8ad8" stroke-width="1.3" stroke-dasharray="5,2" d="M560.34,-1069.47C558.69,-1063.43 557.1,-1056.95 556,-1050.85 554.81,-1044.27 553.98,-1037.12 553.39,-1030.42"/>
<polygon fill="#5a8ad8" stroke="#5a8ad8" stroke-width="1.3" points="556.17,-1030.02 552.77,-1022.25 550.58,-1030.44 556.17,-1030.02"/>
<text text-anchor="middle" x="560.5" y="-1043.64" font-family="Helvetica,sans-Serif" font-size="9.00" fill="#4b5563">lit</text>
</g>
<!-- s_expl -->
<g id="node17" class="node">
<title>s_expl</title>
<path fill="#ddebff" stroke="#7fa8e0" stroke-width="1.3" d="M863.5,-1021.85C863.5,-1021.85 664.5,-1021.85 664.5,-1021.85 658.5,-1021.85 652.5,-1015.85 652.5,-1009.85 652.5,-1009.85 652.5,-995.85 652.5,-995.85 652.5,-989.85 658.5,-983.85 664.5,-983.85 664.5,-983.85 863.5,-983.85 863.5,-983.85 869.5,-983.85 875.5,-989.85 875.5,-995.85 875.5,-995.85 875.5,-1009.85 875.5,-1009.85 875.5,-1015.85 869.5,-1021.85 863.5,-1021.85"/>
<text text-anchor="middle" x="764" y="-1006.05" font-family="Helvetica,sans-Serif" font-size="11.00" fill="#1f2937">explore_data.py · detect_outliers.py</text>
<text text-anchor="middle" x="764" y="-994.05" font-family="Helvetica,sans-Serif" font-size="11.00" fill="#1f2937">analyze_missing_values.py</text>
</g>
<!-- d_raw&#45;&gt;s_expl -->
<g id="edge17" class="edge">
<title>d_raw&#45;&gt;s_expl</title>
<path fill="none" stroke="#5a8ad8" stroke-width="1.3" stroke-dasharray="5,2" d="M620.27,-1069.84C650.35,-1056.03 687.85,-1038.81 717,-1025.43"/>
<polygon fill="#5a8ad8" stroke="#5a8ad8" stroke-width="1.3" points="718.5,-1027.82 724.6,-1021.94 716.17,-1022.73 718.5,-1027.82"/>
</g>
<!-- c_split&#45;&gt;s_split -->
<g id="edge6" class="edge">
<title>c_split&#45;&gt;s_split</title>
<path fill="none" stroke="#374151" stroke-width="1.7" d="M439.16,-1076.69C447.42,-1071.28 456.58,-1065.3 465,-1059.85 481.68,-1049.02 500.21,-1037.09 515.86,-1027.03"/>
<polygon fill="#374151" stroke="#374151" stroke-width="1.7" points="517.89,-1029.47 523.76,-1021.95 514.48,-1024.17 517.89,-1029.47"/>
<text text-anchor="middle" x="512.5" y="-1043.64" font-family="Helvetica,sans-Serif" font-size="9.00" fill="#4b5563">exécute</text>
</g>
<!-- c_train -->
<g id="node9" class="node">
<title>c_train</title>
<path fill="#fef3c7" stroke="#e5c766" stroke-width="1.3" d="M450,-934.85C450,-934.85 390,-934.85 390,-934.85 384,-934.85 378,-928.85 378,-922.85 378,-922.85 378,-910.85 378,-910.85 378,-904.85 384,-898.85 390,-898.85 390,-898.85 450,-898.85 450,-898.85 456,-898.85 462,-904.85 462,-910.85 462,-910.85 462,-922.85 462,-922.85 462,-928.85 456,-934.85 450,-934.85"/>
<text text-anchor="middle" x="420" y="-914.05" font-family="Helvetica,sans-Serif" font-size="11.00" fill="#1f2937">make train</text>
</g>
<!-- c_split&#45;&gt;c_train -->
<g id="edge4" class="edge">
<title>c_split&#45;&gt;c_train</title>
<path fill="none" stroke="#374151" stroke-width="1.7" d="M413.68,-1076.65C414.92,-1045.68 417.51,-980.38 418.96,-943.9"/>
<polygon fill="#374151" stroke="#374151" stroke-width="1.7" points="422.11,-943.97 419.32,-934.85 415.82,-943.72 422.11,-943.97"/>
</g>
<!-- d_proc -->
<g id="node8" class="node">
<title>d_proc</title>
<polygon fill="#dcfce7" stroke="#7fcba0" stroke-width="1.3" points="616,-935.85 613,-939.85 592,-939.85 589,-935.85 488,-935.85 488,-897.85 616,-897.85 616,-935.85"/>
<text text-anchor="middle" x="552" y="-920.05" font-family="Helvetica,sans-Serif" font-size="11.00" fill="#1f2937">data/processed/</text>
<text text-anchor="middle" x="552" y="-908.05" font-family="Helvetica,sans-Serif" font-size="11.00" fill="#1f2937">train.csv · test.csv</text>
</g>
<!-- s_split&#45;&gt;d_proc -->
<g id="edge10" class="edge">
<title>s_split&#45;&gt;d_proc</title>
<path fill="none" stroke="#5a8ad8" stroke-width="1.3" stroke-dasharray="5,2" d="M552,-983.62C552,-972.06 552,-956.92 552,-944.08"/>
<polygon fill="#5a8ad8" stroke="#5a8ad8" stroke-width="1.3" points="554.8,-944.04 552,-936.04 549.2,-944.04 554.8,-944.04"/>
<text text-anchor="middle" x="562.5" y="-957.64" font-family="Helvetica,sans-Serif" font-size="9.00" fill="#4b5563">écrit</text>
</g>
<!-- s_train -->
<g id="node10" class="node">
<title>s_train</title>
<path fill="#ddebff" stroke="#7fa8e0" stroke-width="1.3" d="M634.5,-849.85C634.5,-849.85 469.5,-849.85 469.5,-849.85 463.5,-849.85 457.5,-843.85 457.5,-837.85 457.5,-837.85 457.5,-811.85 457.5,-811.85 457.5,-805.85 463.5,-799.85 469.5,-799.85 469.5,-799.85 634.5,-799.85 634.5,-799.85 640.5,-799.85 646.5,-805.85 646.5,-811.85 646.5,-811.85 646.5,-837.85 646.5,-837.85 646.5,-843.85 640.5,-849.85 634.5,-849.85"/>
<text text-anchor="middle" x="552" y="-834.05" font-family="Helvetica,sans-Serif" font-size="11.00" fill="#1f2937">compare_with_sklearn.py</text>
<text text-anchor="middle" x="552" y="-822.05" font-family="Helvetica,sans-Serif" font-size="11.00" fill="#1f2937">régression logistique + arbre</text>
<text text-anchor="middle" x="552" y="-810.05" font-family="Helvetica,sans-Serif" font-size="11.00" fill="#1f2937">imputation, validation croisée</text>
</g>
<!-- d_proc&#45;&gt;s_train -->
<g id="edge11" class="edge">
<title>d_proc&#45;&gt;s_train</title>
<path fill="none" stroke="#5a8ad8" stroke-width="1.3" stroke-dasharray="5,2" d="M552,-897.63C552,-886.32 552,-871.45 552,-858.18"/>
<polygon fill="#5a8ad8" stroke="#5a8ad8" stroke-width="1.3" points="554.8,-858.17 552,-850.17 549.2,-858.17 554.8,-858.17"/>
<text text-anchor="middle" x="556.5" y="-871.64" font-family="Helvetica,sans-Serif" font-size="9.00" fill="#4b5563">lit</text>
</g>
<!-- c_train&#45;&gt;s_train -->
<g id="edge7" class="edge">
<title>c_train&#45;&gt;s_train</title>
<path fill="none" stroke="#374151" stroke-width="1.7" d="M445.14,-898.7C463.19,-886.4 487.97,-869.5 509.12,-855.08"/>
<polygon fill="#374151" stroke="#374151" stroke-width="1.7" points="511.07,-857.56 516.73,-849.89 507.52,-852.36 511.07,-857.56"/>
<text text-anchor="middle" x="504.5" y="-871.64" font-family="Helvetica,sans-Serif" font-size="9.00" fill="#4b5563">exécute</text>
</g>
<!-- c_plots -->
<g id="node13" class="node">
<title>c_plots</title>
<path fill="#fef3c7" stroke="#e5c766" stroke-width="1.3" d="M450.5,-752.85C450.5,-752.85 389.5,-752.85 389.5,-752.85 383.5,-752.85 377.5,-746.85 377.5,-740.85 377.5,-740.85 377.5,-728.85 377.5,-728.85 377.5,-722.85 383.5,-716.85 389.5,-716.85 389.5,-716.85 450.5,-716.85 450.5,-716.85 456.5,-716.85 462.5,-722.85 462.5,-728.85 462.5,-728.85 462.5,-740.85 462.5,-740.85 462.5,-746.85 456.5,-752.85 450.5,-752.85"/>
<text text-anchor="middle" x="420" y="-732.05" font-family="Helvetica,sans-Serif" font-size="11.00" fill="#1f2937">make plots</text>
</g>
<!-- c_train&#45;&gt;c_plots -->
<g id="edge5" class="edge">
<title>c_train&#45;&gt;c_plots</title>
<path fill="none" stroke="#374151" stroke-width="1.7" d="M420,-898.59C420,-867 420,-799.72 420,-762.32"/>
<polygon fill="#374151" stroke="#374151" stroke-width="1.7" points="423.15,-762.05 420,-753.05 416.85,-762.05 423.15,-762.05"/>
</g>
<!-- d_models -->
<g id="node11" class="node">
<title>d_models</title>
<polygon fill="#dcfce7" stroke="#7fcba0" stroke-width="1.3" points="909.5,-697.85 906.5,-701.85 885.5,-701.85 882.5,-697.85 698.5,-697.85 698.5,-647.85 909.5,-647.85 909.5,-697.85"/>
<text text-anchor="middle" x="804" y="-682.05" font-family="Helvetica,sans-Serif" font-size="11.00" fill="#1f2937">back&#45;end/models/</text>
<text text-anchor="middle" x="804" y="-670.05" font-family="Helvetica,sans-Serif" font-size="11.00" fill="#1f2937">logistic_regression · decision_tree</text>
<text text-anchor="middle" x="804" y="-658.05" font-family="Helvetica,sans-Serif" font-size="11.00" fill="#1f2937">scaler &#160;(.joblib)</text>
</g>
<!-- s_train&#45;&gt;d_models -->
<g id="edge12" class="edge">
<title>s_train&#45;&gt;d_models</title>
<path fill="none" stroke="#5a8ad8" stroke-width="1.3" stroke-dasharray="5,2" d="M592.49,-799.74C637.22,-773.12 709.17,-730.29 756.52,-702.11"/>
<polygon fill="#5a8ad8" stroke="#5a8ad8" stroke-width="1.3" points="758.17,-704.38 763.61,-697.89 755.31,-699.57 758.17,-704.38"/>
<text text-anchor="middle" x="740.5" y="-732.64" font-family="Helvetica,sans-Serif" font-size="9.00" fill="#4b5563">écrit</text>
</g>
<!-- d_metrics -->
<g id="node12" class="node">
<title>d_metrics</title>
<polygon fill="#dcfce7" stroke="#7fcba0" stroke-width="1.3" points="675.5,-691.85 672.5,-695.85 651.5,-695.85 648.5,-691.85 428.5,-691.85 428.5,-653.85 675.5,-653.85 675.5,-691.85"/>
<text text-anchor="middle" x="552" y="-676.05" font-family="Helvetica,sans-Serif" font-size="11.00" fill="#1f2937">results/metrics/</text>
<text text-anchor="middle" x="552" y="-664.05" font-family="Helvetica,sans-Serif" font-size="11.00" fill="#1f2937">accuracy, precision, recall, F1, AUC&#45;ROC</text>
</g>
<!-- s_train&#45;&gt;d_metrics -->
<g id="edge13" class="edge">
<title>s_train&#45;&gt;d_metrics</title>
<path fill="none" stroke="#5a8ad8" stroke-width="1.3" stroke-dasharray="5,2" d="M552,-799.74C552,-772.58 552,-728.54 552,-700.4"/>
<polygon fill="#5a8ad8" stroke="#5a8ad8" stroke-width="1.3" points="554.8,-700.21 552,-692.21 549.2,-700.21 554.8,-700.21"/>
<text text-anchor="middle" x="562.5" y="-732.64" font-family="Helvetica,sans-Serif" font-size="9.00" fill="#4b5563">écrit</text>
</g>
<!-- t_pytest -->
<g id="node19" class="node">
<title>t_pytest</title>
<path fill="#ede9fe" stroke="#a99ce0" stroke-width="1.3" d="M1182,-487.85C1182,-487.85 962,-487.85 962,-487.85 956,-487.85 950,-481.85 950,-475.85 950,-475.85 950,-449.85 950,-449.85 950,-443.85 956,-437.85 962,-437.85 962,-437.85 1182,-437.85 1182,-437.85 1188,-437.85 1194,-443.85 1194,-449.85 1194,-449.85 1194,-475.85 1194,-475.85 1194,-481.85 1188,-487.85 1182,-487.85"/>
<text text-anchor="middle" x="1072" y="-472.05" font-family="Helvetica,sans-Serif" font-size="11.00" fill="#1f2937">pytest &#45; 25 tests</text>
<text text-anchor="middle" x="1072" y="-460.05" font-family="Helvetica,sans-Serif" font-size="11.00" fill="#1f2937">test_api · test_predict · test_preprocess</text>
<text text-anchor="middle" x="1072" y="-448.05" font-family="Helvetica,sans-Serif" font-size="11.00" fill="#1f2937">test_schemas · test_imputation</text>
</g>
<!-- d_models&#45;&gt;t_pytest -->
<g id="edge31" class="edge">
<title>d_models&#45;&gt;t_pytest</title>
<path fill="none" stroke="#5a8ad8" stroke-width="1.3" stroke-dasharray="5,2" d="M835,-647.78C884.42,-609.43 980.9,-534.55 1034.26,-493.14"/>
<polygon fill="#5a8ad8" stroke="#5a8ad8" stroke-width="1.3" points="1036.26,-495.13 1040.86,-488.01 1032.82,-490.71 1036.26,-495.13"/>
<text text-anchor="middle" x="980" y="-580.64" font-family="Helvetica,sans-Serif" font-size="9.00" fill="#4b5563">requis (make test)</text>
</g>
<!-- svc_api -->
<g id="node25" class="node">
<title>svc_api</title>
<path fill="#ffedd5" stroke="#ebb57e" stroke-width="1.3" d="M1792,-481.85C1792,-481.85 1648,-481.85 1648,-481.85 1642,-481.85 1636,-475.85 1636,-469.85 1636,-469.85 1636,-455.85 1636,-455.85 1636,-449.85 1642,-443.85 1648,-443.85 1648,-443.85 1792,-443.85 1792,-443.85 1798,-443.85 1804,-449.85 1804,-455.85 1804,-455.85 1804,-469.85 1804,-469.85 1804,-475.85 1798,-481.85 1792,-481.85"/>
<text text-anchor="middle" x="1720" y="-466.05" font-family="Helvetica,sans-Serif" font-size="11.00" fill="#1f2937">API Flask + Gunicorn (api)</text>
<text text-anchor="middle" x="1720" y="-454.05" font-family="Helvetica,sans-Serif" font-size="11.00" fill="#1f2937">back&#45;end/app/ · port 8000</text>
</g>
<!-- d_models&#45;&gt;svc_api -->
<g id="edge30" class="edge">
<title>d_models&#45;&gt;svc_api</title>
<path fill="none" stroke="#5a8ad8" stroke-width="1.3" stroke-dasharray="5,2" d="M909.52,-671.53C1053.41,-670.18 1297.17,-664.25 1330,-639.85 1358.89,-618.37 1332.79,-589.54 1358,-563.85 1406.78,-514.12 1436.68,-524.74 1504,-506.85 1559.58,-492.07 1575.71,-499.65 1632,-487.85 1637.65,-486.66 1643.47,-485.33 1649.3,-483.91"/>
<polygon fill="#5a8ad8" stroke="#5a8ad8" stroke-width="1.3" points="1650.16,-486.58 1657.25,-481.93 1648.81,-481.15 1650.16,-486.58"/>
<text text-anchor="middle" x="1409.5" y="-580.64" font-family="Helvetica,sans-Serif" font-size="9.00" fill="#4b5563">chargés au démarrage</text>
</g>
<!-- s_plots -->
<g id="node14" class="node">
<title>s_plots</title>
<path fill="#ddebff" stroke="#7fa8e0" stroke-width="1.3" d="M618.5,-544.85C618.5,-544.85 485.5,-544.85 485.5,-544.85 479.5,-544.85 473.5,-538.85 473.5,-532.85 473.5,-532.85 473.5,-518.85 473.5,-518.85 473.5,-512.85 479.5,-506.85 485.5,-506.85 485.5,-506.85 618.5,-506.85 618.5,-506.85 624.5,-506.85 630.5,-512.85 630.5,-518.85 630.5,-518.85 630.5,-532.85 630.5,-532.85 630.5,-538.85 624.5,-544.85 618.5,-544.85"/>
<text text-anchor="middle" x="552" y="-529.05" font-family="Helvetica,sans-Serif" font-size="11.00" fill="#1f2937">plot_results.py</text>
<text text-anchor="middle" x="552" y="-517.05" font-family="Helvetica,sans-Serif" font-size="11.00" fill="#1f2937">graphiques d&#39;évaluation</text>
</g>
<!-- d_metrics&#45;&gt;s_plots -->
<g id="edge14" class="edge">
<title>d_metrics&#45;&gt;s_plots</title>
<path fill="none" stroke="#5a8ad8" stroke-width="1.3" stroke-dasharray="5,2" d="M552,-653.77C552,-628.48 552,-582.37 552,-553.24"/>
<polygon fill="#5a8ad8" stroke="#5a8ad8" stroke-width="1.3" points="554.8,-553.14 552,-545.14 549.2,-553.14 554.8,-553.14"/>
<text text-anchor="middle" x="556.5" y="-580.64" font-family="Helvetica,sans-Serif" font-size="9.00" fill="#4b5563">lit</text>
</g>
<!-- c_plots&#45;&gt;s_plots -->
<g id="edge8" class="edge">
<title>c_plots&#45;&gt;s_plots</title>
<path fill="none" stroke="#374151" stroke-width="1.7" d="M394.42,-716.64C388.6,-711.35 383.19,-705.01 380,-697.85 370.96,-677.54 369.76,-667.57 380,-647.85 404.47,-600.71 456.68,-568.07 497.19,-548.67"/>
<polygon fill="#374151" stroke="#374151" stroke-width="1.7" points="498.56,-551.51 505.38,-544.85 495.9,-545.8 498.56,-551.51"/>
<text text-anchor="middle" x="398.5" y="-670.64" font-family="Helvetica,sans-Serif" font-size="9.00" fill="#4b5563">exécute</text>
</g>
<!-- c_test -->
<g id="node18" class="node">
<title>c_test</title>
<path fill="#fef3c7" stroke="#e5c766" stroke-width="1.3" d="M1152,-600.85C1152,-600.85 1096,-600.85 1096,-600.85 1090,-600.85 1084,-594.85 1084,-588.85 1084,-588.85 1084,-576.85 1084,-576.85 1084,-570.85 1090,-564.85 1096,-564.85 1096,-564.85 1152,-564.85 1152,-564.85 1158,-564.85 1164,-570.85 1164,-576.85 1164,-576.85 1164,-588.85 1164,-588.85 1164,-594.85 1158,-600.85 1152,-600.85"/>
<text text-anchor="middle" x="1124" y="-580.05" font-family="Helvetica,sans-Serif" font-size="11.00" fill="#1f2937">make test</text>
</g>
<!-- c_plots&#45;&gt;c_test -->
<g id="edge28" class="edge">
<title>c_plots&#45;&gt;c_test</title>
<path fill="none" stroke="#374151" stroke-width="1.7" d="M462.52,-727.26C487.14,-723.68 518.76,-719.45 547,-716.85 629.87,-709.21 841.05,-720.94 921,-697.85 987.71,-678.57 1056.29,-633.84 1094.2,-606.48"/>
<polygon fill="#374151" stroke="#374151" stroke-width="1.7" points="1096.4,-608.78 1101.82,-600.93 1092.69,-603.69 1096.4,-608.78"/>
</g>
<!-- d_plots -->
<g id="node15" class="node">
<title>d_plots</title>
<polygon fill="#dcfce7" stroke="#7fcba0" stroke-width="1.3" points="797,-418.85 794,-422.85 773,-422.85 770,-418.85 535,-418.85 535,-380.85 797,-380.85 797,-418.85"/>
<text text-anchor="middle" x="666" y="-403.05" font-family="Helvetica,sans-Serif" font-size="11.00" fill="#1f2937">results/plots/</text>
<text text-anchor="middle" x="666" y="-391.05" font-family="Helvetica,sans-Serif" font-size="11.00" fill="#1f2937">matrices de confusion, courbes ROC (.png)</text>
</g>
<!-- s_plots&#45;&gt;d_plots -->
<g id="edge15" class="edge">
<title>s_plots&#45;&gt;d_plots</title>
<path fill="none" stroke="#5a8ad8" stroke-width="1.3" stroke-dasharray="5,2" d="M568.58,-506.81C588.42,-485.23 621.72,-449.01 643.78,-425.02"/>
<polygon fill="#5a8ad8" stroke="#5a8ad8" stroke-width="1.3" points="646.05,-426.68 649.4,-418.9 641.93,-422.89 646.05,-426.68"/>
<text text-anchor="middle" x="640.5" y="-460.65" font-family="Helvetica,sans-Serif" font-size="9.00" fill="#4b5563">écrit</text>
</g>
<!-- l_report -->
<g id="node29" class="node">
<title>l_report</title>
<polygon fill="#fce7f3" stroke="#e89bc4" stroke-width="1.3" points="1328,-231 1206,-231 1206,-193 1334,-193 1334,-225 1328,-231"/>
<polyline fill="none" stroke="#e89bc4" stroke-width="1.3" points="1328,-231 1328,-225 "/>
<polyline fill="none" stroke="#e89bc4" stroke-width="1.3" points="1334,-225 1328,-225 "/>
<text text-anchor="middle" x="1270" y="-215.2" font-family="Helvetica,sans-Serif" font-size="11.00" fill="#1f2937">Rapport PDF</text>
<text text-anchor="middle" x="1270" y="-203.2" font-family="Helvetica,sans-Serif" font-size="11.00" fill="#1f2937">docs/Rapport final/</text>
</g>
<!-- d_plots&#45;&gt;l_report -->
<g id="edge33" class="edge">
<title>d_plots&#45;&gt;l_report</title>
<path fill="none" stroke="#9ca3af" stroke-width="1.4" stroke-dasharray="1,5" d="M686.03,-380.84C717.44,-353.73 781.27,-302.92 845,-278 962.85,-231.91 1111,-218.36 1197.63,-214.46"/>
<polygon fill="#9ca3af" stroke="#9ca3af" stroke-width="1.4" points="1197.94,-217.25 1205.82,-214.12 1197.71,-211.66 1197.94,-217.25"/>
<text text-anchor="middle" x="887" y="-317.93" font-family="Helvetica,sans-Serif" font-size="9.00" fill="#4b5563">figures du rapport</text>
</g>
<!-- c_expl -->
<g id="node16" class="node">
<title>c_expl</title>
<path fill="#fef3c7" stroke="#e5c766" stroke-width="1.3" d="M856,-1112.85C856,-1112.85 694,-1112.85 694,-1112.85 688,-1112.85 682,-1106.85 682,-1100.85 682,-1100.85 682,-1088.85 682,-1088.85 682,-1082.85 688,-1076.85 694,-1076.85 694,-1076.85 856,-1076.85 856,-1076.85 862,-1076.85 868,-1082.85 868,-1088.85 868,-1088.85 868,-1100.85 868,-1100.85 868,-1106.85 862,-1112.85 856,-1112.85"/>
<text text-anchor="middle" x="775" y="-1092.05" font-family="Helvetica,sans-Serif" font-size="11.00" fill="#1f2937">make explore · make outliers</text>
</g>
<!-- c_expl&#45;&gt;s_expl -->
<g id="edge16" class="edge">
<title>c_expl&#45;&gt;s_expl</title>
<path fill="none" stroke="#e8943a" stroke-width="1.3" stroke-dasharray="5,2" d="M772.88,-1076.49C771.28,-1063.43 769.06,-1045.28 767.25,-1030.4"/>
<polygon fill="#e8943a" stroke="#e8943a" stroke-width="1.3" points="769.98,-1029.67 766.23,-1022.07 764.42,-1030.35 769.98,-1029.67"/>
<text text-anchor="middle" x="791.5" y="-1043.64" font-family="Helvetica,sans-Serif" font-size="9.00" fill="#4b5563">optionnel</text>
</g>
<!-- c_test&#45;&gt;t_pytest -->
<g id="edge19" class="edge">
<title>c_test&#45;&gt;t_pytest</title>
<path fill="none" stroke="#374151" stroke-width="1.7" d="M1116.44,-564.69C1108.58,-546.86 1096.09,-518.52 1086.35,-496.42"/>
<polygon fill="#374151" stroke="#374151" stroke-width="1.7" points="1089.15,-494.95 1082.64,-487.98 1083.38,-497.49 1089.15,-494.95"/>
<text text-anchor="middle" x="1125.5" y="-523.64" font-family="Helvetica,sans-Serif" font-size="9.00" fill="#4b5563">exécute</text>
</g>
<!-- c_cov -->
<g id="node20" class="node">
<title>c_cov</title>
<path fill="#fef3c7" stroke="#e5c766" stroke-width="1.3" d="M1296.5,-480.85C1296.5,-480.85 1211.5,-480.85 1211.5,-480.85 1205.5,-480.85 1199.5,-474.85 1199.5,-468.85 1199.5,-468.85 1199.5,-456.85 1199.5,-456.85 1199.5,-450.85 1205.5,-444.85 1211.5,-444.85 1211.5,-444.85 1296.5,-444.85 1296.5,-444.85 1302.5,-444.85 1308.5,-450.85 1308.5,-456.85 1308.5,-456.85 1308.5,-468.85 1308.5,-468.85 1308.5,-474.85 1302.5,-480.85 1296.5,-480.85"/>
<text text-anchor="middle" x="1254" y="-460.05" font-family="Helvetica,sans-Serif" font-size="11.00" fill="#1f2937">make coverage</text>
</g>
<!-- c_test&#45;&gt;c_cov -->
<g id="edge18" class="edge">
<title>c_test&#45;&gt;c_cov</title>
<path fill="none" stroke="#374151" stroke-width="1.7" d="M1142.9,-564.69C1165.43,-544.24 1203.18,-509.97 1228.34,-487.14"/>
<polygon fill="#374151" stroke="#374151" stroke-width="1.7" points="1230.53,-489.41 1235.07,-481.02 1226.29,-484.74 1230.53,-489.41"/>
</g>
<!-- c_docker -->
<g id="node22" class="node">
<title>c_docker</title>
<path fill="#fef3c7" stroke="#e5c766" stroke-width="1.3" d="M1618.5,-481.85C1618.5,-481.85 1361.5,-481.85 1361.5,-481.85 1355.5,-481.85 1349.5,-475.85 1349.5,-469.85 1349.5,-469.85 1349.5,-455.85 1349.5,-455.85 1349.5,-449.85 1355.5,-443.85 1361.5,-443.85 1361.5,-443.85 1618.5,-443.85 1618.5,-443.85 1624.5,-443.85 1630.5,-449.85 1630.5,-455.85 1630.5,-455.85 1630.5,-469.85 1630.5,-469.85 1630.5,-475.85 1624.5,-481.85 1618.5,-481.85"/>
<text text-anchor="middle" x="1490" y="-466.05" font-family="Helvetica,sans-Serif" font-size="11.00" fill="#1f2937">make docker&#45;up</text>
<text text-anchor="middle" x="1490" y="-454.05" font-family="Helvetica,sans-Serif" font-size="11.00" fill="#1f2937">(= make train + docker compose up &#45;d &#45;&#45;build)</text>
</g>
<!-- c_test&#45;&gt;c_docker -->
<g id="edge29" class="edge">
<title>c_test&#45;&gt;c_docker</title>
<path fill="none" stroke="#374151" stroke-width="1.7" d="M1164.16,-567.9C1208.71,-552.54 1282.78,-527.29 1347,-506.85 1370.55,-499.35 1396.38,-491.47 1419.54,-484.54"/>
<polygon fill="#374151" stroke="#374151" stroke-width="1.7" points="1420.55,-487.52 1428.28,-481.93 1418.75,-481.49 1420.55,-487.52"/>
</g>
<!-- t_cov -->
<g id="node21" class="node">
<title>t_cov</title>
<path fill="#ede9fe" stroke="#a99ce0" stroke-width="1.3" d="M1296.5,-339.12C1296.5,-339.12 1123.5,-339.12 1123.5,-339.12 1117.5,-339.12 1111.5,-333.12 1111.5,-327.12 1111.5,-327.12 1111.5,-313.12 1111.5,-313.12 1111.5,-307.12 1117.5,-301.12 1123.5,-301.12 1123.5,-301.12 1296.5,-301.12 1296.5,-301.12 1302.5,-301.12 1308.5,-307.12 1308.5,-313.12 1308.5,-313.12 1308.5,-327.12 1308.5,-327.12 1308.5,-333.12 1302.5,-339.12 1296.5,-339.12"/>
<text text-anchor="middle" x="1210" y="-323.32" font-family="Helvetica,sans-Serif" font-size="11.00" fill="#1f2937">pytest&#45;cov</text>
<text text-anchor="middle" x="1210" y="-311.32" font-family="Helvetica,sans-Serif" font-size="11.00" fill="#1f2937">couverture 97 % (module app/)</text>
</g>
<!-- c_cov&#45;&gt;t_cov -->
<g id="edge20" class="edge">
<title>c_cov&#45;&gt;t_cov</title>
<path fill="none" stroke="#374151" stroke-width="1.7" d="M1248.6,-444.59C1241.07,-420.48 1227.31,-376.5 1218.42,-348.06"/>
<polygon fill="#374151" stroke="#374151" stroke-width="1.7" points="1221.41,-347.06 1215.72,-339.41 1215.4,-348.94 1221.41,-347.06"/>
<text text-anchor="middle" x="1257.5" y="-397.65" font-family="Helvetica,sans-Serif" font-size="9.00" fill="#4b5563">exécute</text>
</g>
<!-- svc_db -->
<g id="node24" class="node">
<title>svc_db</title>
<path fill="#ffedd5" stroke="#ebb57e" stroke-width="1.3" d="M1600.5,-341.6C1600.5,-344.24 1572.04,-346.38 1537,-346.38 1501.96,-346.38 1473.5,-344.24 1473.5,-341.6 1473.5,-341.6 1473.5,-298.65 1473.5,-298.65 1473.5,-296.01 1501.96,-293.87 1537,-293.87 1572.04,-293.87 1600.5,-296.01 1600.5,-298.65 1600.5,-298.65 1600.5,-341.6 1600.5,-341.6"/>
<path fill="none" stroke="#ebb57e" stroke-width="1.3" d="M1600.5,-341.6C1600.5,-338.97 1572.04,-336.83 1537,-336.83 1501.96,-336.83 1473.5,-338.97 1473.5,-341.6"/>
<text text-anchor="middle" x="1537" y="-323.32" font-family="Helvetica,sans-Serif" font-size="11.00" fill="#1f2937">PostgreSQL (db)</text>
<text text-anchor="middle" x="1537" y="-311.32" font-family="Helvetica,sans-Serif" font-size="11.00" fill="#1f2937">postgres:16&#45;alpine</text>
</g>
<!-- c_docker&#45;&gt;svc_db -->
<g id="edge21" class="edge">
<title>c_docker&#45;&gt;svc_db</title>
<path fill="none" stroke="#374151" stroke-width="1.7" d="M1496.05,-443.74C1503.52,-421.36 1516.39,-382.85 1525.71,-354.94"/>
<polygon fill="#374151" stroke="#374151" stroke-width="1.7" points="1528.73,-355.82 1528.6,-346.29 1522.76,-353.83 1528.73,-355.82"/>
</g>
<!-- lx1 -->
<g id="node33" class="node">
<title>lx1</title>
<ellipse fill="#374151" stroke="#374151" stroke-width="1.3" cx="2349" cy="-320.12" rx="0.72" ry="0.72"/>
</g>
<!-- c_docker&#45;&gt;lx1 -->
<!-- cfg_compose -->
<g id="node23" class="node">
<title>cfg_compose</title>
<polygon fill="#f3f4f6" stroke="#c2c7cf" stroke-width="1.3" points="1604,-600.85 1472,-600.85 1472,-564.85 1610,-564.85 1610,-594.85 1604,-600.85"/>
<polyline fill="none" stroke="#c2c7cf" stroke-width="1.3" points="1604,-600.85 1604,-594.85 "/>
<polyline fill="none" stroke="#c2c7cf" stroke-width="1.3" points="1610,-594.85 1604,-594.85 "/>
<text text-anchor="middle" x="1541" y="-580.05" font-family="Helvetica,sans-Serif" font-size="11.00" fill="#1f2937">docker&#45;compose.yml</text>
</g>
<!-- cfg_compose&#45;&gt;c_docker -->
<g id="edge22" class="edge">
<title>cfg_compose&#45;&gt;c_docker</title>
<path fill="none" stroke="#9ca3af" stroke-width="1.4" stroke-dasharray="1,5" d="M1533.58,-564.69C1525.08,-545.02 1511.06,-512.57 1501.22,-489.8"/>
<polygon fill="#9ca3af" stroke="#9ca3af" stroke-width="1.4" points="1503.67,-488.42 1497.93,-482.19 1498.53,-490.64 1503.67,-488.42"/>
<text text-anchor="middle" x="1546" y="-523.64" font-family="Helvetica,sans-Serif" font-size="9.00" fill="#4b5563">configure</text>
</g>
<!-- svc_api&#45;&gt;svc_db -->
<g id="edge24" class="edge">
<title>svc_api&#45;&gt;svc_db</title>
<path fill="none" stroke="#5a8ad8" stroke-width="1.3" stroke-dasharray="5,2" d="M1696.45,-443.74C1666.1,-420.4 1612.89,-379.48 1576.35,-351.38"/>
<polygon fill="#5a8ad8" stroke="#5a8ad8" stroke-width="1.3" points="1577.77,-348.95 1569.72,-346.29 1574.36,-353.39 1577.77,-348.95"/>
<text text-anchor="middle" x="1669.5" y="-397.65" font-family="Helvetica,sans-Serif" font-size="9.00" fill="#4b5563">SQL</text>
</g>
<!-- svc_web -->
<g id="node26" class="node">
<title>svc_web</title>
<path fill="#ffedd5" stroke="#ebb57e" stroke-width="1.3" d="M1792,-601.85C1792,-601.85 1632,-601.85 1632,-601.85 1626,-601.85 1620,-595.85 1620,-589.85 1620,-589.85 1620,-575.85 1620,-575.85 1620,-569.85 1626,-563.85 1632,-563.85 1632,-563.85 1792,-563.85 1792,-563.85 1798,-563.85 1804,-569.85 1804,-575.85 1804,-575.85 1804,-589.85 1804,-589.85 1804,-595.85 1798,-601.85 1792,-601.85"/>
<text text-anchor="middle" x="1712" y="-586.05" font-family="Helvetica,sans-Serif" font-size="11.00" fill="#1f2937">Front&#45;end Vue 3 + Vite (web)</text>
<text text-anchor="middle" x="1712" y="-574.05" font-family="Helvetica,sans-Serif" font-size="11.00" fill="#1f2937">port 5173</text>
</g>
<!-- svc_web&#45;&gt;svc_api -->
<g id="edge23" class="edge">
<title>svc_web&#45;&gt;svc_api</title>
<path fill="none" stroke="#5a8ad8" stroke-width="1.3" stroke-dasharray="5,2" d="M1713.23,-563.67C1714.57,-543.95 1716.72,-512.29 1718.23,-489.92"/>
<polygon fill="#5a8ad8" stroke="#5a8ad8" stroke-width="1.3" points="1721.03,-490.02 1718.78,-481.85 1715.44,-489.64 1721.03,-490.02"/>
<text text-anchor="middle" x="1743.5" y="-523.64" font-family="Helvetica,sans-Serif" font-size="9.00" fill="#4b5563">JSON / REST</text>
</g>
<!-- l_app -->
<g id="node28" class="node">
<title>l_app</title>
<path fill="#fce7f3" stroke="#e89bc4" stroke-width="1.3" d="M1696,-230C1696,-230 1534,-230 1534,-230 1528,-230 1522,-224 1522,-218 1522,-218 1522,-206 1522,-206 1522,-200 1528,-194 1534,-194 1534,-194 1696,-194 1696,-194 1702,-194 1708,-200 1708,-206 1708,-206 1708,-218 1708,-218 1708,-224 1702,-230 1696,-230"/>
<text text-anchor="middle" x="1615" y="-209.2" font-family="Helvetica,sans-Serif" font-size="11.00" fill="#1f2937">Application web fonctionnelle</text>
</g>
<!-- svc_web&#45;&gt;l_app -->
<g id="edge32" class="edge">
<title>svc_web&#45;&gt;l_app</title>
<path fill="none" stroke="#9ca3af" stroke-width="1.4" stroke-dasharray="1,5" d="M1751.47,-563.79C1760.26,-558.54 1769.03,-552.2 1776,-544.85 1809.89,-509.08 1821.93,-484.12 1805,-437.85 1772.61,-349.33 1688.28,-271.65 1643.65,-235.14"/>
<polygon fill="#9ca3af" stroke="#9ca3af" stroke-width="1.4" points="1645.35,-232.91 1637.37,-230.06 1641.83,-237.26 1645.35,-232.91"/>
</g>
<!-- user -->
<g id="node27" class="node">
<title>user</title>
<path fill="#f3f4f6" stroke="#c2c7cf" stroke-width="1.3" d="M1777,-752.85C1777,-752.85 1647,-752.85 1647,-752.85 1641,-752.85 1635,-746.85 1635,-740.85 1635,-740.85 1635,-728.85 1635,-728.85 1635,-722.85 1641,-716.85 1647,-716.85 1647,-716.85 1777,-716.85 1777,-716.85 1783,-716.85 1789,-722.85 1789,-728.85 1789,-728.85 1789,-740.85 1789,-740.85 1789,-746.85 1783,-752.85 1777,-752.85"/>
<text text-anchor="middle" x="1712" y="-732.05" font-family="Helvetica,sans-Serif" font-size="11.00" fill="#1f2937">Utilisateur (navigateur)</text>
</g>
<!-- user&#45;&gt;svc_web -->
<g id="edge25" class="edge">
<title>user&#45;&gt;svc_web</title>
<path fill="none" stroke="#374151" stroke-width="1.7" d="M1712,-716.64C1712,-690.95 1712,-642.3 1712,-611.55"/>
<polygon fill="#374151" stroke="#374151" stroke-width="1.7" points="1715.15,-611.25 1712,-602.25 1708.85,-611.25 1715.15,-611.25"/>
<text text-anchor="middle" x="1723.5" y="-670.64" font-family="Helvetica,sans-Serif" font-size="9.00" fill="#4b5563">HTTP</text>
</g>
<!-- key -->
<g id="node41" class="node">
<title>key</title>
<path fill="transparent" stroke="transparent" stroke-width="1.3" d="M2582.5,-85C2582.5,-85 1873.5,-85 1873.5,-85 1867.5,-85 1861.5,-79 1861.5,-73 1861.5,-73 1861.5,-34 1861.5,-34 1861.5,-28 1867.5,-22 1873.5,-22 1873.5,-22 2582.5,-22 2582.5,-22 2588.5,-22 2594.5,-28 2594.5,-34 2594.5,-34 2594.5,-73 2594.5,-73 2594.5,-79 2588.5,-85 2582.5,-85"/>
<polygon fill="#fef3c7" stroke="transparent" points="1877,-54.5 1877,-74.5 1899,-74.5 1899,-54.5 1877,-54.5"/>
<text text-anchor="start" x="1886" y="-61.7" font-family="Helvetica,sans-Serif" font-size="11.00" fill="#1f2937"> </text>
<text text-anchor="start" x="1906" y="-61.7" font-family="Helvetica,sans-Serif" font-size="11.00" fill="#1f2937">Commande manuelle</text>
<polygon fill="#ddebff" stroke="transparent" points="2030,-54.5 2030,-74.5 2052,-74.5 2052,-54.5 2030,-54.5"/>
<text text-anchor="start" x="2039" y="-61.7" font-family="Helvetica,sans-Serif" font-size="11.00" fill="#1f2937"> </text>
<text text-anchor="start" x="2059" y="-61.7" font-family="Helvetica,sans-Serif" font-size="11.00" fill="#1f2937">Script Python</text>
<polygon fill="#dcfce7" stroke="transparent" points="2187,-54.5 2187,-74.5 2209,-74.5 2209,-54.5 2187,-54.5"/>
<text text-anchor="start" x="2196" y="-61.7" font-family="Helvetica,sans-Serif" font-size="11.00" fill="#1f2937"> </text>
<text text-anchor="start" x="2216" y="-61.7" font-family="Helvetica,sans-Serif" font-size="11.00" fill="#1f2937">Fichier / dossier généré</text>
<polygon fill="#f3f4f6" stroke="transparent" points="2352,-54.5 2352,-74.5 2374,-74.5 2374,-54.5 2352,-54.5"/>
<text text-anchor="start" x="2361" y="-61.7" font-family="Helvetica,sans-Serif" font-size="11.00" fill="#1f2937"> </text>
<text text-anchor="start" x="2381" y="-61.7" font-family="Helvetica,sans-Serif" font-size="11.00" fill="#1f2937">Données d&#39;entrée / config / doc</text>
<polygon fill="#ede9fe" stroke="transparent" points="1877,-31.5 1877,-51.5 1899,-51.5 1899,-31.5 1877,-31.5"/>
<text text-anchor="start" x="1886" y="-38.7" font-family="Helvetica,sans-Serif" font-size="11.00" fill="#1f2937"> </text>
<text text-anchor="start" x="1906" y="-38.7" font-family="Helvetica,sans-Serif" font-size="11.00" fill="#1f2937">Test</text>
<polygon fill="#ffedd5" stroke="transparent" points="2030,-31.5 2030,-51.5 2052,-51.5 2052,-31.5 2030,-31.5"/>
<text text-anchor="start" x="2039" y="-38.7" font-family="Helvetica,sans-Serif" font-size="11.00" fill="#1f2937"> </text>
<text text-anchor="start" x="2059" y="-38.7" font-family="Helvetica,sans-Serif" font-size="11.00" fill="#1f2937">Service / déploiement</text>
<polygon fill="#fce7f3" stroke="transparent" points="2187,-31.5 2187,-51.5 2209,-51.5 2209,-31.5 2187,-31.5"/>
<text text-anchor="start" x="2196" y="-38.7" font-family="Helvetica,sans-Serif" font-size="11.00" fill="#1f2937"> </text>
<text text-anchor="start" x="2216" y="-38.7" font-family="Helvetica,sans-Serif" font-size="11.00" fill="#1f2937">Livrable final</text>
<polygon fill="#ffffff" stroke="transparent" points="2352,-31.5 2352,-51.5 2374,-51.5 2374,-31.5 2352,-31.5"/>
<text text-anchor="start" x="2361" y="-38.7" font-family="Helvetica,sans-Serif" font-size="11.00" fill="#1f2937"> </text>
<text text-anchor="start" x="2381" y="-38.7" font-family="Helvetica,sans-Serif" font-size="11.00" fill="#6b7280">Ordre déduit du Makefile / README</text>
</g>
<!-- l_app&#45;&gt;key -->
<!-- l_slides -->
<g id="node30" class="node">
<title>l_slides</title>
<polygon fill="#fce7f3" stroke="#e89bc4" stroke-width="1.3" points="1493,-231 1357,-231 1357,-193 1499,-193 1499,-225 1493,-231"/>
<polyline fill="none" stroke="#e89bc4" stroke-width="1.3" points="1493,-231 1493,-225 "/>
<polyline fill="none" stroke="#e89bc4" stroke-width="1.3" points="1499,-225 1493,-225 "/>
<text text-anchor="middle" x="1428" y="-215.2" font-family="Helvetica,sans-Serif" font-size="11.00" fill="#1f2937">Présentation (DIAPO)</text>
<text text-anchor="middle" x="1428" y="-203.2" font-family="Helvetica,sans-Serif" font-size="11.00" fill="#1f2937">docs/presentation/</text>
</g>
<!-- l_repo -->
<g id="node31" class="node">
<title>l_repo</title>
<path fill="#fce7f3" stroke="#e89bc4" stroke-width="1.3" d="M1810.5,-145C1810.5,-145 1707.5,-145 1707.5,-145 1701.5,-145 1695.5,-139 1695.5,-133 1695.5,-133 1695.5,-121 1695.5,-121 1695.5,-115 1701.5,-109 1707.5,-109 1707.5,-109 1810.5,-109 1810.5,-109 1816.5,-109 1822.5,-115 1822.5,-121 1822.5,-121 1822.5,-133 1822.5,-133 1822.5,-139 1816.5,-145 1810.5,-145"/>
<text text-anchor="middle" x="1759" y="-124.2" font-family="Helvetica,sans-Serif" font-size="11.00" fill="#1f2937">Dépôt Git (GitHub)</text>
</g>
<!-- doc_readme -->
<g id="node32" class="node">
<title>doc_readme</title>
<polygon fill="#f3f4f6" stroke="#c2c7cf" stroke-width="1.3" points="1817,-230 1731,-230 1731,-194 1823,-194 1823,-224 1817,-230"/>
<polyline fill="none" stroke="#c2c7cf" stroke-width="1.3" points="1817,-230 1817,-224 "/>
<polyline fill="none" stroke="#c2c7cf" stroke-width="1.3" points="1823,-224 1817,-224 "/>
<text text-anchor="middle" x="1777" y="-209.2" font-family="Helvetica,sans-Serif" font-size="11.00" fill="#1f2937">README.md</text>
</g>
<!-- doc_readme&#45;&gt;l_repo -->
<g id="edge26" class="edge">
<title>doc_readme&#45;&gt;l_repo</title>
<path fill="none" stroke="#9ca3af" stroke-width="1.4" stroke-dasharray="1,5" d="M1773.27,-193.8C1770.74,-182.12 1767.34,-166.46 1764.5,-153.35"/>
<polygon fill="#9ca3af" stroke="#9ca3af" stroke-width="1.4" points="1767.16,-152.4 1762.72,-145.18 1761.68,-153.59 1767.16,-152.4"/>
<text text-anchor="middle" x="1794" y="-166.8" font-family="Helvetica,sans-Serif" font-size="9.00" fill="#4b5563">documente</text>
</g>
<!-- lx2 -->
<g id="node34" class="node">
<title>lx2</title>
<ellipse fill="#374151" stroke="#374151" stroke-width="1.3" cx="2427" cy="-169" rx="0.72" ry="0.72"/>
</g>
<!-- lx1&#45;&gt;lx2 -->
<g id="edge34" class="edge">
<title>lx1&#45;&gt;lx2</title>
<path fill="none" stroke="#374151" stroke-width="1.7" d="M2349.07,-319.05C2350.46,-317.54 2372.9,-293.01 2386,-270 2404.07,-238.24 2418.37,-196.94 2424.18,-178.99"/>
<polygon fill="#374151" stroke="#374151" stroke-width="1.7" points="2427.26,-179.7 2426.95,-170.17 2421.25,-177.81 2427.26,-179.7"/>
<text text-anchor="middle" x="2459" y="-209.8" font-family="Helvetica,sans-Serif" font-size="9.00" fill="#4b5563">ordre d&#39;exécution</text>
</g>
<!-- ly1 -->
<g id="node35" class="node">
<title>ly1</title>
<ellipse fill="#5a8ad8" stroke="#5a8ad8" stroke-width="1.3" cx="2266" cy="-320.12" rx="0.72" ry="0.72"/>
</g>
<!-- ly2 -->
<g id="node36" class="node">
<title>ly2</title>
<ellipse fill="#5a8ad8" stroke="#5a8ad8" stroke-width="1.3" cx="2266" cy="-169" rx="0.72" ry="0.72"/>
</g>
<!-- ly1&#45;&gt;ly2 -->
<g id="edge35" class="edge">
<title>ly1&#45;&gt;ly2</title>
<path fill="none" stroke="#5a8ad8" stroke-width="1.3" stroke-dasharray="5,2" d="M2266,-319.02C2266,-315.16 2266,-209.3 2266,-178.39"/>
<polygon fill="#5a8ad8" stroke="#5a8ad8" stroke-width="1.3" points="2268.8,-178.1 2266,-170.1 2263.2,-178.1 2268.8,-178.1"/>
<text text-anchor="middle" x="2323.5" y="-209.8" font-family="Helvetica,sans-Serif" font-size="9.00" fill="#4b5563">flux de données / fichiers</text>
</g>
<!-- lz1 -->
<g id="node37" class="node">
<title>lz1</title>
<ellipse fill="#e8943a" stroke="#e8943a" stroke-width="1.3" cx="2141" cy="-320.12" rx="0.72" ry="0.72"/>
</g>
<!-- lz2 -->
<g id="node38" class="node">
<title>lz2</title>
<ellipse fill="#e8943a" stroke="#e8943a" stroke-width="1.3" cx="2141" cy="-169" rx="0.72" ry="0.72"/>
</g>
<!-- lz1&#45;&gt;lz2 -->
<g id="edge36" class="edge">
<title>lz1&#45;&gt;lz2</title>
<path fill="none" stroke="#e8943a" stroke-width="1.3" stroke-dasharray="5,2" d="M2141,-319.02C2141,-315.16 2141,-209.3 2141,-178.39"/>
<polygon fill="#e8943a" stroke="#e8943a" stroke-width="1.3" points="2143.8,-178.1 2141,-170.1 2138.2,-178.1 2143.8,-178.1"/>
<text text-anchor="middle" x="2180.5" y="-209.8" font-family="Helvetica,sans-Serif" font-size="9.00" fill="#4b5563">étape optionnelle</text>
</g>
<!-- lw1 -->
<g id="node39" class="node">
<title>lw1</title>
<ellipse fill="#9ca3af" stroke="#9ca3af" stroke-width="1.3" cx="1971" cy="-320.12" rx="0.72" ry="0.72"/>
</g>
<!-- lw2 -->
<g id="node40" class="node">
<title>lw2</title>
<ellipse fill="#9ca3af" stroke="#9ca3af" stroke-width="1.3" cx="2053" cy="-169" rx="0.72" ry="0.72"/>
</g>
<!-- lw1&#45;&gt;lw2 -->
<g id="edge37" class="edge">
<title>lw1&#45;&gt;lw2</title>
<path fill="none" stroke="#9ca3af" stroke-width="1.4" stroke-dasharray="1,5" d="M1971,-319.07C1971.12,-316.62 1975.2,-237.86 2012,-193 2020.72,-182.36 2035.74,-175.76 2044.97,-172.49"/>
<polygon fill="#9ca3af" stroke="#9ca3af" stroke-width="1.4" points="2046.11,-175.07 2052.92,-170.02 2044.45,-169.72 2046.11,-175.07"/>
<text text-anchor="middle" x="2074" y="-209.8" font-family="Helvetica,sans-Serif" font-size="9.00" fill="#4b5563">lien documentaire / livrable</text>
</g>
<!-- lw2&#45;&gt;key -->
</g>
</svg>
